<mxfile host="app.diagrams.net" modified="2021-09-16T07:11:31.208Z" agent="5.0 (Windows NT 10.0; Win64; x64) AppleWebKit/537.36 (KHTML, like Gecko) Chrome/93.0.4577.63 Safari/537.36" etag="AiwuAqCYYsmy4EHf8HOm" version="15.2.7" type="github">
  <diagram id="y_EGhvHL0gBH4iH_qR2R" name="Page-1">
    <mxGraphModel dx="1679" dy="533" grid="1" gridSize="10" guides="1" tooltips="1" connect="1" arrows="1" fold="1" page="1" pageScale="1" pageWidth="827" pageHeight="1169" math="1" shadow="0">
      <root>
        <mxCell id="0" />
        <mxCell id="1" parent="0" />
        <mxCell id="VpKqUX4VM9mPJ3Cbt_9l-1" value="&lt;font face=&quot;Times New Roman&quot;&gt;Audio-visual separation&lt;/font&gt;" style="rounded=1;whiteSpace=wrap;html=1;fillColor=#d5e8d4;strokeColor=#9AD479;shadow=0;strokeWidth=1;" vertex="1" parent="1">
          <mxGeometry x="80" y="319" width="100" height="40" as="geometry" />
        </mxCell>
        <mxCell id="VpKqUX4VM9mPJ3Cbt_9l-2" value="&lt;font face=&quot;Times New Roman&quot;&gt;Audio-contextual separation&lt;/font&gt;" style="rounded=1;whiteSpace=wrap;html=1;fillColor=#dae8fc;strokeColor=#6c8ebf;strokeWidth=1;" vertex="1" parent="1">
          <mxGeometry x="80" y="230" width="100" height="40" as="geometry" />
        </mxCell>
        <mxCell id="VpKqUX4VM9mPJ3Cbt_9l-5" value="" style="edgeStyle=orthogonalEdgeStyle;rounded=0;orthogonalLoop=1;jettySize=auto;html=1;endArrow=classicThin;endFill=1;" edge="1" parent="1" source="VpKqUX4VM9mPJ3Cbt_9l-4" target="VpKqUX4VM9mPJ3Cbt_9l-2">
          <mxGeometry relative="1" as="geometry" />
        </mxCell>
        <mxCell id="VpKqUX4VM9mPJ3Cbt_9l-4" value="&lt;font face=&quot;Times New Roman&quot;&gt;Pre-trained&lt;br&gt;E2EASR&lt;/font&gt;" style="rounded=1;whiteSpace=wrap;html=1;fillColor=#fff2cc;strokeColor=#d6b656;strokeWidth=1;" vertex="1" parent="1">
          <mxGeometry x="220" y="230" width="80" height="40" as="geometry" />
        </mxCell>
        <mxCell id="VpKqUX4VM9mPJ3Cbt_9l-7" value="" style="edgeStyle=orthogonalEdgeStyle;rounded=0;orthogonalLoop=1;jettySize=auto;html=1;endArrow=classicThin;endFill=1;" edge="1" parent="1" source="VpKqUX4VM9mPJ3Cbt_9l-6" target="VpKqUX4VM9mPJ3Cbt_9l-1">
          <mxGeometry relative="1" as="geometry" />
        </mxCell>
        <mxCell id="VpKqUX4VM9mPJ3Cbt_9l-6" value="&lt;font style=&quot;font-size: 10px&quot; face=&quot;Times New Roman&quot;&gt;Lip movement stream&lt;/font&gt;" style="text;html=1;strokeColor=none;fillColor=none;align=center;verticalAlign=middle;whiteSpace=wrap;rounded=0;shadow=0;" vertex="1" parent="1">
          <mxGeometry x="90" y="390" width="80" height="30" as="geometry" />
        </mxCell>
        <mxCell id="VpKqUX4VM9mPJ3Cbt_9l-9" value="" style="edgeStyle=orthogonalEdgeStyle;rounded=0;orthogonalLoop=1;jettySize=auto;html=1;endArrow=classicThin;endFill=1;exitX=1;exitY=0.5;exitDx=0;exitDy=0;" edge="1" parent="1" source="VpKqUX4VM9mPJ3Cbt_9l-8" target="VpKqUX4VM9mPJ3Cbt_9l-1">
          <mxGeometry relative="1" as="geometry" />
        </mxCell>
        <mxCell id="VpKqUX4VM9mPJ3Cbt_9l-8" value="&lt;font face=&quot;Times New Roman&quot;&gt;Mixture speech&lt;/font&gt;" style="text;html=1;strokeColor=none;fillColor=none;align=center;verticalAlign=middle;whiteSpace=wrap;rounded=0;shadow=0;" vertex="1" parent="1">
          <mxGeometry x="-20" y="324" width="50" height="30" as="geometry" />
        </mxCell>
        <mxCell id="VpKqUX4VM9mPJ3Cbt_9l-10" value="" style="edgeStyle=elbowEdgeStyle;elbow=vertical;endArrow=classicThin;html=1;endFill=1;" edge="1" parent="1">
          <mxGeometry width="50" height="50" relative="1" as="geometry">
            <mxPoint x="60" y="340" as="sourcePoint" />
            <mxPoint x="80" y="250" as="targetPoint" />
            <Array as="points">
              <mxPoint x="60" y="250" />
              <mxPoint x="80" y="250" />
              <mxPoint x="90" y="300" />
              <mxPoint x="178" y="380" />
            </Array>
          </mxGeometry>
        </mxCell>
        <mxCell id="VpKqUX4VM9mPJ3Cbt_9l-13" value="&lt;font style=&quot;font-size: 10px&quot; face=&quot;Times New Roman&quot;&gt;Intermediate target speech&lt;/font&gt;" style="text;html=1;strokeColor=none;fillColor=none;align=center;verticalAlign=middle;whiteSpace=wrap;rounded=0;shadow=0;" vertex="1" parent="1">
          <mxGeometry x="180" y="330" width="80" height="30" as="geometry" />
        </mxCell>
        <mxCell id="VpKqUX4VM9mPJ3Cbt_9l-15" value="" style="endArrow=classicThin;html=1;endFill=1;entryX=0.5;entryY=1;entryDx=0;entryDy=0;" edge="1" parent="1" source="VpKqUX4VM9mPJ3Cbt_9l-2" target="VpKqUX4VM9mPJ3Cbt_9l-16">
          <mxGeometry width="50" height="50" relative="1" as="geometry">
            <mxPoint x="450" y="360" as="sourcePoint" />
            <mxPoint x="420" y="360" as="targetPoint" />
          </mxGeometry>
        </mxCell>
        <mxCell id="VpKqUX4VM9mPJ3Cbt_9l-16" value="&lt;font face=&quot;Times New Roman&quot;&gt;Final target speech&lt;/font&gt;" style="text;html=1;strokeColor=none;fillColor=none;align=center;verticalAlign=middle;whiteSpace=wrap;rounded=0;shadow=0;" vertex="1" parent="1">
          <mxGeometry x="95" y="170" width="70" height="30" as="geometry" />
        </mxCell>
        <mxCell id="VpKqUX4VM9mPJ3Cbt_9l-18" value="" style="edgeStyle=elbowEdgeStyle;elbow=vertical;endArrow=classicThin;html=1;entryX=0.5;entryY=1;entryDx=0;entryDy=0;endFill=1;" edge="1" parent="1" source="VpKqUX4VM9mPJ3Cbt_9l-1" target="VpKqUX4VM9mPJ3Cbt_9l-4">
          <mxGeometry width="50" height="50" relative="1" as="geometry">
            <mxPoint x="210" y="315" as="sourcePoint" />
            <mxPoint x="260" y="265" as="targetPoint" />
            <Array as="points">
              <mxPoint x="190" y="310" />
            </Array>
          </mxGeometry>
        </mxCell>
        <mxCell id="VpKqUX4VM9mPJ3Cbt_9l-21" value="&lt;sub&gt;$$x_t$$&lt;/sub&gt;" style="text;html=1;align=center;verticalAlign=middle;resizable=0;points=[];autosize=1;strokeColor=none;fillColor=none;" vertex="1" parent="1">
          <mxGeometry x="-90" y="230" width="60" height="20" as="geometry" />
        </mxCell>
      </root>
    </mxGraphModel>
  </diagram>
</mxfile>
